<svg width="257" height="64" viewBox="0 0 257 64" fill="none" xmlns="http://www.w3.org/2000/svg">
<path d="M36.5381 62H45.6841V46.2213C45.6841 41.0549 48.6863 37.2848 54.3415 37.2848C54.9 37.2848 55.8076 37.2848 56.7851 37.3546V27.3707H56.0869C52.1073 27.3707 48.407 29.3256 45.8238 32.8165H45.6841V27.8595H36.5381V62ZM77.896 62.6284C88.5082 62.6284 95.9786 55.3674 95.9786 44.9646C95.9786 34.4921 88.5082 27.3707 77.896 27.3707C67.0045 27.3707 59.7436 34.7713 59.7436 44.9646C59.7436 55.1579 67.0045 62.6284 77.896 62.6284ZM77.896 54.3899C72.6597 54.3899 69.0292 50.2707 69.0292 44.9646C69.0292 39.5887 72.5899 35.5393 77.896 35.5393C82.9228 35.5393 86.6929 39.3793 86.6929 44.9646C86.6929 50.55 82.7832 54.3899 77.896 54.3899ZM114.182 62.6284C123.118 62.6284 127.377 58.0204 127.377 52.0162C127.377 45.2439 123.049 43.6381 115.648 40.9152C112.297 39.6585 110.621 38.6811 110.621 37.2848C110.621 35.4695 112.436 34.7713 113.833 34.7713C116.346 34.7713 119.418 35.8884 122.001 38.4018L126.47 31.6296C122.56 28.6274 118.72 27.3707 114.042 27.3707C106.991 27.3707 101.685 31.3503 101.685 37.4942C101.685 44.1268 106.572 46.7799 112.227 48.6649C116.625 50.1311 118.371 50.8991 118.371 52.3652C118.371 54.0409 116.905 55.1579 114.252 55.1579C110.481 55.1579 107.549 53.8314 104.756 51.2482L100.358 57.6015C104.058 60.8131 108.736 62.6284 114.182 62.6284ZM144.783 62.6284C149.391 62.6284 151.626 61.6509 153.79 60.464L151.486 53.1332C149.95 53.9012 148.274 54.3201 147.157 54.3201C144.993 54.3201 144.225 52.9238 144.225 49.9216V35.4695H153.441V27.8595H144.225V15.7811L135.079 16.7585V27.8595H131.03V35.4695H135.079V51.2482C135.079 58.928 138.919 62.6284 144.783 62.6284ZM190.076 44.6155C190.076 34.6317 183.373 27.3707 173.738 27.3707C163.615 27.3707 156.424 34.4921 156.424 44.8948C156.424 55.5768 163.824 62.6284 174.297 62.6284C181.907 62.6284 186.306 59.8357 189.168 56.1354L183.234 50.6198C181.418 52.854 178.765 54.4598 174.925 54.4598C170.317 54.4598 167.036 52.0162 165.919 47.897H189.866C189.936 47.3384 190.076 45.7326 190.076 44.6155ZM173.669 35.3299C177.648 35.3299 180.092 37.7037 180.999 41.3341H165.989C167.036 37.4244 169.968 35.3299 173.669 35.3299ZM197.172 62H206.318V46.2213C206.318 41.0549 209.32 37.2848 214.975 37.2848C215.534 37.2848 216.441 37.2848 217.419 37.3546V27.3707H216.721C212.741 27.3707 209.041 29.3256 206.458 32.8165H206.318V27.8595H197.172V62ZM236.849 62.6284C241.457 62.6284 245.018 60.8829 247.392 57.811H247.461V62H256.189V10.6146H247.112V31.839H246.973C244.459 28.9067 240.829 27.3707 236.64 27.3707C227.494 27.3707 220.512 34.7015 220.512 45.0345C220.512 55.5768 227.424 62.6284 236.849 62.6284ZM238.525 54.3899C233.428 54.3899 229.798 50.55 229.798 45.1043C229.798 39.2396 233.638 35.5393 238.525 35.5393C243.761 35.5393 247.461 39.5887 247.461 45.1043C247.461 50.6896 243.552 54.3899 238.525 54.3899Z" fill="#020C56"/>
<path fill-rule="evenodd" clip-rule="evenodd" d="M0.710143 62.9965L0.929687 0.915039L21.3296 0.987181L21.1101 63.0686L0.710143 62.9965ZM37.1314 33.1126L21.4474 33.0571L21.5608 0.989827L37.5021 1.0462C49.9907 1.09037 60.0788 11.2501 60.0346 23.7386C59.9905 36.2271 49.8307 46.3152 37.3422 46.2711L37.0849 46.2702L37.1314 33.1126Z" fill="url(#paint0_linear)"/>
<path d="M23.7956 0.995902L0.929688 0.915039L37.2492 63.5368L59.2184 63.6145L23.7956 0.995902Z" fill="url(#paint1_linear)"/>
<defs>
<linearGradient id="paint0_linear" x1="13.7081" y1="0.960228" x2="3.87057" y2="114.137" gradientUnits="userSpaceOnUse">
<stop stop-color="#174BDD"/>
<stop offset="0.714953" stop-color="#6DFFE5"/>
</linearGradient>
<linearGradient id="paint1_linear" x1="2.94726" y1="0.922174" x2="50.247" y2="67.5824" gradientUnits="userSpaceOnUse">
<stop offset="0.0001" stop-color="#6DFFE5"/>
<stop offset="1" stop-color="#2B79F7"/>
</linearGradient>
</defs>
</svg>
