<svg width="112" height="95" viewBox="0 0 112 95" fill="none" xmlns="http://www.w3.org/2000/svg">
<path fill-rule="evenodd" clip-rule="evenodd" d="M61.295 30.1359H47.7728V0H59.7503C71.4862 0 81 9.5138 81 21.2497C81 32.4661 72.3098 41.6528 61.295 42.4441V30.1359ZM30 58.3406V0.000604573H47.5793V58.3406H30Z" fill="#0F257D"/>
<path d="M49.7042 0H30L61.4882 58.7264H80.4197L49.7042 0Z" fill="#2EDBAD"/>
<path d="M4.34488 76.368V79.44C5.47554 77.2 7.23554 76.08 9.62488 76.08V79.856H8.69688C7.26754 79.856 6.17954 80.2187 5.43288 80.944C4.70754 81.6693 4.34488 82.928 4.34488 84.72V94H0.696875V76.368H4.34488ZM24.4341 89.616C25.5008 88.5493 26.0341 87.0667 26.0341 85.168C26.0341 83.2693 25.5115 81.7973 24.4661 80.752C23.4421 79.6853 22.1941 79.152 20.7221 79.152C19.2501 79.152 18.0128 79.6853 17.0101 80.752C16.0075 81.7973 15.5061 83.28 15.5061 85.2C15.5061 87.0987 15.9968 88.5813 16.9781 89.648C17.9595 90.6933 19.1755 91.216 20.6261 91.216C22.0981 91.216 23.3675 90.6827 24.4341 89.616ZM20.6261 94.288C18.0661 94.288 15.9541 93.456 14.2901 91.792C12.6261 90.1067 11.7941 87.9093 11.7941 85.2C11.7941 82.4693 12.6475 80.272 14.3541 78.608C16.0821 76.9227 18.2261 76.08 20.7861 76.08C23.3461 76.08 25.4795 76.9227 27.1861 78.608C28.9141 80.272 29.7781 82.4587 29.7781 85.168C29.7781 87.8773 28.8928 90.0747 27.1221 91.76C25.3728 93.4453 23.2075 94.288 20.6261 94.288ZM32.5844 81.424C32.5844 79.9307 33.2137 78.672 34.4724 77.648C35.731 76.6027 37.3844 76.08 39.4324 76.08C41.4804 76.08 43.1017 76.592 44.2964 77.616C45.5124 78.6187 46.163 79.9947 46.2484 81.744H42.5044C42.4404 80.8693 42.131 80.1867 41.5764 79.696C41.043 79.2053 40.2857 78.96 39.3044 78.96C38.323 78.96 37.555 79.184 37.0004 79.632C36.4457 80.0587 36.1684 80.6347 36.1684 81.36C36.1684 82.064 36.5204 82.6187 37.2244 83.024C37.9284 83.4293 38.7817 83.728 39.7844 83.92C40.8084 84.112 41.8217 84.3467 42.8244 84.624C43.8484 84.9013 44.7124 85.4133 45.4164 86.16C46.1204 86.8853 46.4724 87.8667 46.4724 89.104C46.4724 90.64 45.8217 91.888 44.5204 92.848C43.2404 93.808 41.587 94.288 39.5604 94.288C37.5337 94.288 35.891 93.7973 34.6324 92.816C33.3737 91.8347 32.6804 90.4373 32.5524 88.624H36.3284C36.3924 89.4987 36.7124 90.1813 37.2884 90.672C37.8644 91.1627 38.643 91.408 39.6244 91.408C40.627 91.408 41.4164 91.1947 41.9924 90.768C42.5897 90.32 42.8884 89.7333 42.8884 89.008C42.8884 88.2827 42.5364 87.7173 41.8324 87.312C41.1284 86.9067 40.2644 86.608 39.2404 86.416C38.2377 86.2027 37.2244 85.968 36.2004 85.712C35.1977 85.4347 34.3444 84.944 33.6404 84.24C32.9364 83.536 32.5844 82.5973 32.5844 81.424ZM59.0221 79.344H54.7341V89.104C54.7341 89.7653 54.8835 90.2453 55.1821 90.544C55.5021 90.8213 56.0355 90.96 56.7821 90.96H59.0221V94H56.1421C52.7501 94 51.0541 92.368 51.0541 89.104V79.344H48.9741V76.368H51.0541V71.984H54.7341V76.368H59.0221V79.344ZM69.8084 94.288C67.2484 94.288 65.1684 93.456 63.5684 91.792C61.9684 90.128 61.1684 87.92 61.1684 85.168C61.1684 82.416 61.979 80.2187 63.6004 78.576C65.2217 76.912 67.3124 76.08 69.8724 76.08C72.4537 76.08 74.5444 76.88 76.1444 78.48C77.7444 80.0587 78.5444 82.128 78.5444 84.688C78.5444 85.3067 78.5017 85.8827 78.4164 86.416H64.9124C64.9977 87.888 65.4884 89.0613 66.3844 89.936C67.3017 90.7893 68.443 91.216 69.8084 91.216C71.7924 91.216 73.1897 90.3947 74.0004 88.752H77.9364C77.403 90.3733 76.4324 91.7067 75.0244 92.752C73.6164 93.776 71.8777 94.288 69.8084 94.288ZM74.7364 83.92C74.715 82.4693 74.235 81.3173 73.2964 80.464C72.3577 79.5893 71.2164 79.152 69.8724 79.152C68.5284 79.152 67.3977 79.5893 66.4804 80.464C65.5844 81.3173 65.0724 82.4693 64.9444 83.92H74.7364ZM85.7824 76.368V79.44C86.913 77.2 88.673 76.08 91.0624 76.08V79.856H90.1344C88.705 79.856 87.617 80.2187 86.8704 80.944C86.145 81.6693 85.7824 82.928 85.7824 84.72V94H82.1344V76.368H85.7824ZM106.032 89.52C107.098 88.432 107.632 86.9813 107.632 85.168C107.632 83.3547 107.098 81.9147 106.032 80.848C104.986 79.7813 103.738 79.248 102.288 79.248C100.837 79.248 99.5783 79.7707 98.5116 80.816C97.4663 81.8613 96.9436 83.2907 96.9436 85.104C96.9436 86.9173 97.4663 88.3787 98.5116 89.488C99.5783 90.576 100.837 91.12 102.288 91.12C103.738 91.12 104.986 90.5867 106.032 89.52ZM101.52 94.288C99.173 94.288 97.1996 93.4347 95.5996 91.728C93.9996 90 93.1996 87.8027 93.1996 85.136C93.1996 82.448 93.989 80.272 95.5676 78.608C97.1676 76.9227 99.1516 76.08 101.52 76.08C102.906 76.08 104.122 76.4 105.168 77.04C106.234 77.6587 107.056 78.48 107.632 79.504V70.32H111.312V94H107.632V90.704C107.034 91.792 106.213 92.6667 105.168 93.328C104.122 93.968 102.906 94.288 101.52 94.288Z" fill="#0F257D"/>
</svg>
