<svg width="221" height="53" viewBox="0 0 221 53" fill="none" xmlns="http://www.w3.org/2000/svg">
<path d="M0.53811 52H9.68415V36.2213C9.68415 31.0549 12.6863 27.2848 18.3415 27.2848C18.9 27.2848 19.8076 27.2848 20.7851 27.3546V17.3707H20.0869C16.1073 17.3707 12.407 19.3256 9.82378 22.8165H9.68415V17.8595H0.53811V52ZM41.896 52.6284C52.5082 52.6284 59.9786 45.3674 59.9786 34.9646C59.9786 24.4921 52.5082 17.3707 41.896 17.3707C31.0045 17.3707 23.7436 24.7713 23.7436 34.9646C23.7436 45.1579 31.0045 52.6284 41.896 52.6284ZM41.896 44.3899C36.6597 44.3899 33.0292 40.2707 33.0292 34.9646C33.0292 29.5887 36.5899 25.5393 41.896 25.5393C46.9228 25.5393 50.6929 29.3793 50.6929 34.9646C50.6929 40.55 46.7832 44.3899 41.896 44.3899ZM78.1818 52.6284C87.1184 52.6284 91.3772 48.0204 91.3772 42.0162C91.3772 35.2439 87.0485 33.6381 79.6479 30.9152C76.2967 29.6585 74.6211 28.6811 74.6211 27.2848C74.6211 25.4695 76.4364 24.7713 77.8327 24.7713C80.3461 24.7713 83.4181 25.8884 86.0013 28.4018L90.4696 21.6296C86.5598 18.6274 82.7199 17.3707 78.0421 17.3707C70.9906 17.3707 65.6845 21.3503 65.6845 27.4942C65.6845 34.1268 70.5717 36.7799 76.2269 38.6649C80.6254 40.1311 82.3708 40.8991 82.3708 42.3652C82.3708 44.0409 80.9046 45.1579 78.2516 45.1579C74.4815 45.1579 71.5492 43.8314 68.7565 41.2482L64.358 47.6015C68.0583 50.8131 72.736 52.6284 78.1818 52.6284ZM108.783 52.6284C113.391 52.6284 115.626 51.6509 117.79 50.464L115.486 43.1332C113.95 43.9012 112.274 44.3201 111.157 44.3201C108.993 44.3201 108.225 42.9238 108.225 39.9216V25.4695H117.441V17.8595H108.225V5.7811L99.0789 6.75854V17.8595H95.0295V25.4695H99.0789V41.2482C99.0789 48.928 102.919 52.6284 108.783 52.6284ZM154.076 34.6155C154.076 24.6317 147.373 17.3707 137.738 17.3707C127.615 17.3707 120.424 24.4921 120.424 34.8948C120.424 45.5768 127.824 52.6284 138.297 52.6284C145.907 52.6284 150.306 49.8357 153.168 46.1354L147.234 40.6198C145.418 42.854 142.765 44.4598 138.925 44.4598C134.317 44.4598 131.036 42.0162 129.919 37.897H153.866C153.936 37.3384 154.076 35.7326 154.076 34.6155ZM137.669 25.3299C141.648 25.3299 144.092 27.7037 144.999 31.3341H129.989C131.036 27.4244 133.968 25.3299 137.669 25.3299ZM161.172 52H170.318V36.2213C170.318 31.0549 173.32 27.2848 178.975 27.2848C179.534 27.2848 180.441 27.2848 181.419 27.3546V17.3707H180.721C176.741 17.3707 173.041 19.3256 170.458 22.8165H170.318V17.8595H161.172V52ZM200.849 52.6284C205.457 52.6284 209.018 50.8829 211.392 47.811H211.461V52H220.189V0.614632H211.112V21.839H210.973C208.459 18.9067 204.829 17.3707 200.64 17.3707C191.494 17.3707 184.512 24.7015 184.512 35.0345C184.512 45.5768 191.424 52.6284 200.849 52.6284ZM202.525 44.3899C197.428 44.3899 193.798 40.55 193.798 35.1043C193.798 29.2396 197.638 25.5393 202.525 25.5393C207.761 25.5393 211.461 29.5887 211.461 35.1043C211.461 40.6896 207.552 44.3899 202.525 44.3899Z" fill="white"/>
</svg>
