<svg data-v-423bf9ae="" xmlns="http://www.w3.org/2000/svg" viewBox="0 0 285.4776931773936 60" class="font"><!----><!----><!----><g data-v-423bf9ae="" id="a53202fb-5484-4096-862d-33e4a511a854" fill="white" transform="matrix(5.459508284166465,0,0,5.459508284166465,-6.878979480555245,-7.643311586877523)"><path d="M5.01 4.59L5.01 4.59Q5.75 4.59 6.17 4.82L6.17 4.82L6.17 4.82Q6.59 5.04 6.59 5.38L6.59 5.38L6.59 5.38Q6.59 5.47 6.58 5.52L6.58 5.52L6.58 5.52Q6.45 5.96 6.02 5.96L6.02 5.96L6.02 5.96Q5.95 5.96 5.81 5.94L5.81 5.94L5.81 5.94Q5.25 5.84 4.90 5.84L4.90 5.84L4.90 5.84Q3.89 5.84 3.28 6.30L3.28 6.30L3.28 6.30Q2.66 6.76 2.66 7.55L2.66 7.55L2.66 11.63L2.66 11.63Q2.66 11.97 2.48 12.15L2.48 12.15L2.48 12.15Q2.31 12.33 1.96 12.33L1.96 12.33L1.96 12.33Q1.62 12.33 1.44 12.16L1.44 12.16L1.44 12.16Q1.26 11.98 1.26 11.63L1.26 11.63L1.26 5.38L1.26 5.38Q1.26 5.04 1.44 4.86L1.44 4.86L1.44 4.86Q1.62 4.68 1.96 4.68L1.96 4.68L1.96 4.68Q2.66 4.68 2.66 5.38L2.66 5.38L2.66 5.64L2.66 5.64Q3.08 5.15 3.70 4.87L3.70 4.87L3.70 4.87Q4.31 4.59 5.01 4.59L5.01 4.59ZM11.54 4.62L11.54 4.62Q12.64 4.62 13.52 5.12L13.52 5.12L13.52 5.12Q14.39 5.61 14.89 6.50L14.89 6.50L14.89 6.50Q15.39 7.38 15.39 8.51L15.39 8.51L15.39 8.51Q15.39 9.63 14.90 10.51L14.90 10.51L14.90 10.51Q14.41 11.40 13.53 11.89L13.53 11.89L13.53 11.89Q12.66 12.39 11.54 12.39L11.54 12.39L11.54 12.39Q10.42 12.39 9.53 11.89L9.53 11.89L9.53 11.89Q8.65 11.40 8.16 10.51L8.16 10.51L8.16 10.51Q7.67 9.63 7.67 8.51L7.67 8.51L7.67 8.51Q7.67 7.38 8.16 6.50L8.16 6.50L8.16 6.50Q8.65 5.61 9.53 5.12L9.53 5.12L9.53 5.12Q10.42 4.62 11.54 4.62L11.54 4.62ZM11.54 5.88L11.54 5.88Q10.82 5.88 10.26 6.22L10.26 6.22L10.26 6.22Q9.69 6.55 9.37 7.15L9.37 7.15L9.37 7.15Q9.04 7.76 9.04 8.51L9.04 8.51L9.04 8.51Q9.04 9.27 9.37 9.86L9.37 9.86L9.37 9.86Q9.69 10.46 10.26 10.79L10.26 10.79L10.26 10.79Q10.82 11.13 11.54 11.13L11.54 11.13L11.54 11.13Q12.25 11.13 12.82 10.79L12.82 10.79L12.82 10.79Q13.38 10.46 13.70 9.86L13.70 9.86L13.70 9.86Q14.01 9.27 14.01 8.51L14.01 8.51L14.01 8.51Q14.01 7.76 13.70 7.15L13.70 7.15L13.70 7.15Q13.38 6.55 12.82 6.22L12.82 6.22L12.82 6.22Q12.25 5.88 11.54 5.88L11.54 5.88ZM20.20 4.62L20.20 4.62Q21.11 4.62 21.83 4.91L21.83 4.91L21.83 4.91Q22.55 5.21 22.97 5.73L22.97 5.73L22.97 5.73Q23.16 5.95 23.16 6.17L23.16 6.17L23.16 6.17Q23.16 6.41 22.92 6.61L22.92 6.61L22.92 6.61Q22.76 6.72 22.53 6.72L22.53 6.72L22.53 6.72Q22.16 6.72 21.87 6.45L21.87 6.45L21.87 6.45Q21.52 6.13 21.13 6.00L21.13 6.00L21.13 6.00Q20.73 5.87 20.17 5.87L20.17 5.87L20.17 5.87Q19.53 5.87 19.12 6.08L19.12 6.08L19.12 6.08Q18.70 6.30 18.70 6.69L18.70 6.69L18.70 6.69Q18.70 6.97 18.84 7.16L18.84 7.16L18.84 7.16Q18.98 7.35 19.38 7.51L19.38 7.51L19.38 7.51Q19.77 7.67 20.51 7.83L20.51 7.83L20.51 7.83Q22.04 8.13 22.67 8.68L22.67 8.68L22.67 8.68Q23.31 9.23 23.31 10.09L23.31 10.09L23.31 10.09Q23.31 10.74 22.96 11.26L22.96 11.26L22.96 11.26Q22.61 11.79 21.93 12.09L21.93 12.09L21.93 12.09Q21.25 12.39 20.30 12.39L20.30 12.39L20.30 12.39Q19.35 12.39 18.51 12.10L18.51 12.10L18.51 12.10Q17.67 11.80 17.19 11.33L17.19 11.33L17.19 11.33Q17.01 11.14 17.01 10.89L17.01 10.89L17.01 10.89Q17.01 10.56 17.29 10.35L17.29 10.35L17.29 10.35Q17.56 10.15 17.78 10.15L17.78 10.15L17.78 10.15Q18.06 10.15 18.31 10.40L18.31 10.40L18.31 10.40Q18.58 10.70 19.11 10.91L19.11 10.91L19.11 10.91Q19.64 11.13 20.24 11.13L20.24 11.13L20.24 11.13Q21.04 11.13 21.48 10.86L21.48 10.86L21.48 10.86Q21.92 10.60 21.92 10.15L21.92 10.15L21.92 10.15Q21.92 9.72 21.49 9.43L21.49 9.43L21.49 9.43Q21.06 9.14 20.02 8.95L20.02 8.95L20.02 8.95Q17.33 8.43 17.33 6.73L17.33 6.73L17.33 6.73Q17.33 6.05 17.74 5.57L17.74 5.57L17.74 5.57Q18.14 5.10 18.80 4.86L18.80 4.86L18.80 4.86Q19.46 4.62 20.20 4.62L20.20 4.62ZM28.38 10.93L28.38 10.93Q28.63 10.93 28.80 11.13L28.80 11.13L28.80 11.13Q28.98 11.33 28.98 11.63L28.98 11.63L28.98 11.63Q28.98 11.94 28.75 12.14L28.75 12.14L28.75 12.14Q28.52 12.33 28.15 12.33L28.15 12.33L27.90 12.33L27.90 12.33Q27.22 12.33 26.65 11.98L26.65 11.98L26.65 11.98Q26.08 11.62 25.76 11.00L25.76 11.00L25.76 11.00Q25.44 10.39 25.44 9.62L25.44 9.62L25.44 6.16L24.79 6.16L24.79 6.16Q24.50 6.16 24.32 5.99L24.32 5.99L24.32 5.99Q24.14 5.82 24.14 5.57L24.14 5.57L24.14 5.57Q24.14 5.29 24.32 5.12L24.32 5.12L24.32 5.12Q24.50 4.96 24.79 4.96L24.79 4.96L25.44 4.96L25.44 2.94L25.44 2.94Q25.44 2.63 25.63 2.44L25.63 2.44L25.63 2.44Q25.83 2.24 26.14 2.24L26.14 2.24L26.14 2.24Q26.45 2.24 26.64 2.44L26.64 2.44L26.64 2.44Q26.84 2.63 26.84 2.94L26.84 2.94L26.84 4.96L28.03 4.96L28.03 4.96Q28.32 4.96 28.50 5.12L28.50 5.12L28.50 5.12Q28.69 5.29 28.69 5.57L28.69 5.57L28.69 5.57Q28.69 5.82 28.50 5.99L28.50 5.99L28.50 5.99Q28.32 6.16 28.03 6.16L28.03 6.16L26.84 6.16L26.84 9.62L26.84 9.62Q26.84 10.18 27.15 10.56L27.15 10.56L27.15 10.56Q27.45 10.93 27.90 10.93L27.90 10.93L28.38 10.93ZM37.60 8.39L37.60 8.39Q37.60 8.65 37.42 8.83L37.42 8.83L37.42 8.83Q37.24 9.00 36.96 9.00L36.96 9.00L31.64 9.00L31.64 9.00Q31.79 9.98 32.53 10.58L32.53 10.58L32.53 10.58Q33.26 11.19 34.33 11.19L34.33 11.19L34.33 11.19Q34.75 11.19 35.20 11.03L35.20 11.03L35.20 11.03Q35.66 10.88 35.95 10.65L35.95 10.65L35.95 10.65Q36.15 10.50 36.41 10.50L36.41 10.50L36.41 10.50Q36.68 10.50 36.83 10.64L36.83 10.64L36.83 10.64Q37.09 10.85 37.09 11.12L37.09 11.12L37.09 11.12Q37.09 11.37 36.86 11.54L36.86 11.54L36.86 11.54Q36.39 11.91 35.68 12.15L35.68 12.15L35.68 12.15Q34.97 12.39 34.33 12.39L34.33 12.39L34.33 12.39Q33.18 12.39 32.27 11.89L32.27 11.89L32.27 11.89Q31.36 11.40 30.85 10.51L30.85 10.51L30.85 10.51Q30.34 9.63 30.34 8.51L30.34 8.51L30.34 8.51Q30.34 7.39 30.82 6.50L30.82 6.50L30.82 6.50Q31.30 5.61 32.16 5.12L32.16 5.12L32.16 5.12Q33.03 4.62 34.12 4.62L34.12 4.62L34.12 4.62Q35.20 4.62 35.98 5.10L35.98 5.10L35.98 5.10Q36.76 5.57 37.18 6.43L37.18 6.43L37.18 6.43Q37.60 7.28 37.60 8.39L37.60 8.39ZM34.12 5.82L34.12 5.82Q33.10 5.82 32.46 6.38L32.46 6.38L32.46 6.38Q31.82 6.94 31.65 7.88L31.65 7.88L36.32 7.88L36.32 7.88Q36.19 6.94 35.62 6.38L35.62 6.38L35.62 6.38Q35.04 5.82 34.12 5.82L34.12 5.82ZM43.18 4.59L43.18 4.59Q43.92 4.59 44.34 4.82L44.34 4.82L44.34 4.82Q44.76 5.04 44.76 5.38L44.76 5.38L44.76 5.38Q44.76 5.47 44.74 5.52L44.74 5.52L44.74 5.52Q44.62 5.96 44.18 5.96L44.18 5.96L44.18 5.96Q44.11 5.96 43.97 5.94L43.97 5.94L43.97 5.94Q43.41 5.84 43.06 5.84L43.06 5.84L43.06 5.84Q42.06 5.84 41.44 6.30L41.44 6.30L41.44 6.30Q40.82 6.76 40.82 7.55L40.82 7.55L40.82 11.63L40.82 11.63Q40.82 11.97 40.65 12.15L40.65 12.15L40.65 12.15Q40.47 12.33 40.12 12.33L40.12 12.33L40.12 12.33Q39.79 12.33 39.61 12.16L39.61 12.16L39.61 12.16Q39.42 11.98 39.42 11.63L39.42 11.63L39.42 5.38L39.42 5.38Q39.42 5.04 39.61 4.86L39.61 4.86L39.61 4.86Q39.79 4.68 40.12 4.68L40.12 4.68L40.12 4.68Q40.82 4.68 40.82 5.38L40.82 5.38L40.82 5.64L40.82 5.64Q41.24 5.15 41.86 4.87L41.86 4.87L41.86 4.87Q42.48 4.59 43.18 4.59L43.18 4.59ZM52.84 1.40L52.84 1.40Q53.16 1.40 53.35 1.60L53.35 1.60L53.35 1.60Q53.55 1.79 53.55 2.11L53.55 2.11L53.55 8.50L53.55 8.50Q53.55 9.59 53.04 10.48L53.04 10.48L53.04 10.48Q52.53 11.37 51.65 11.88L51.65 11.88L51.65 11.88Q50.78 12.39 49.70 12.39L49.70 12.39L49.70 12.39Q48.62 12.39 47.73 11.88L47.73 11.88L47.73 11.88Q46.84 11.37 46.34 10.48L46.34 10.48L46.34 10.48Q45.84 9.59 45.84 8.50L45.84 8.50L45.84 8.50Q45.84 7.41 46.31 6.52L46.31 6.52L46.31 6.52Q46.77 5.63 47.59 5.12L47.59 5.12L47.59 5.12Q48.41 4.62 49.42 4.62L49.42 4.62L49.42 4.62Q50.23 4.62 50.93 4.96L50.93 4.96L50.93 4.96Q51.63 5.29 52.12 5.89L52.12 5.89L52.12 2.11L52.12 2.11Q52.12 1.79 52.33 1.60L52.33 1.60L52.33 1.60Q52.53 1.40 52.84 1.40L52.84 1.40ZM49.70 11.13L49.70 11.13Q50.40 11.13 50.97 10.79L50.97 10.79L50.97 10.79Q51.53 10.44 51.86 9.84L51.86 9.84L51.86 9.84Q52.18 9.24 52.18 8.50L52.18 8.50L52.18 8.50Q52.18 7.76 51.86 7.16L51.86 7.16L51.86 7.16Q51.53 6.57 50.97 6.22L50.97 6.22L50.97 6.22Q50.40 5.88 49.70 5.88L49.70 5.88L49.70 5.88Q49 5.88 48.43 6.22L48.43 6.22L48.43 6.22Q47.87 6.57 47.54 7.16L47.54 7.16L47.54 7.16Q47.21 7.76 47.21 8.50L47.21 8.50L47.21 8.50Q47.21 9.24 47.54 9.84L47.54 9.84L47.54 9.84Q47.87 10.44 48.43 10.79L48.43 10.79L48.43 10.79Q49 11.13 49.70 11.13L49.70 11.13Z"></path></g><!----><!----></svg>